# xmcd
#
# Track frame offsets: 
#        150
#        15507
#        27965
#        39275
#        50390
#        66452
#        78565
#        93620
#        106032
#        114925
#        126610
#        144372
#        155172
#        177940
#        196287
#        210115
#        222065
#        232365
#        251650
#        271377
#        282942
#        286015
#        301515
#        318635
#        332727
#
# Disc length: 4487 seconds
#
# Revision: 2
# Processed by: cddbd v1.5.1PL0 Copyright (c) Steve Scherf et al.
# Submitted via: ExactAudioCopy v0.90b4
#
DISCID=66118519
DTITLE=Various Artist - You'll Never Eat Fast Food Again
DYEAR=1999
DGENRE=Blues
TTITLE0=a new found glory - hit or miss
TTITLE1=a new found glory - 3rd and long
TTITLE2=allister - jacob
TTITLE3=allister - friday
TTITLE4=caught inside - solstice
TTITLE5=caught inside - john bobbit
TTITLE6=cousin oliver - shot my boss
TTITLE7=cousin oliver - share
TTITLE8=fenix-tx - minimum wage
TTITLE9=last summer - i think it's time to go home
TTITLE10=last summer - took a walk outside
TTITLE11=midtown - direction
TTITLE12=midtown - come on
TTITLE13=mothermania - mom and dad
TTITLE14=mothermania - she's no whore
TTITLE15=rx bandits - what if
TTITLE16=rx bandits - wrong with me
TTITLE17=the wrens - miss me
TTITLE18=the wrens - this boy is exhausted
TTITLE19=face first - the first step to selling out
TTITLE20=last summer - when donuts are at stake
TTITLE21=rx bandits - all the time (acoustic)
TTITLE22=fenix-tx - jaw
TTITLE23=mothermania - amanda jones
TTITLE24=twelve gallons - carter
EXTD=YEAR: 1999 ID3G:   0
EXTT0=
EXTT1=
EXTT2=
EXTT3=
EXTT4=
EXTT5=
EXTT6=
EXTT7=
EXTT8=
EXTT9=
EXTT10=
EXTT11=
EXTT12=
EXTT13=
EXTT14=
EXTT15=
EXTT16=
EXTT17=
EXTT18=
EXTT19=
EXTT20=
EXTT21=
EXTT22=
EXTT23=
EXTT24=
PLAYORDER=
